<svg width="24" height="32" viewBox="0 0 24 32" fill="none" xmlns="http://www.w3.org/2000/svg">
<path d="M24 15.4898C24 16.653 23.0537 17.5991 21.8907 17.5991C21.1571 17.5991 20.5101 17.2225 20.1319 16.6527L16.3874 17.5785C16.2699 17.6072 16.1526 17.6041 16.0492 17.5782C16.0489 17.578 16.0485 17.5781 16.0481 17.5781L12.3515 16.6539C11.9965 17.1882 11.4045 17.552 10.7268 17.5945L9.84622 19.9544C9.79419 20.0941 9.699 20.2136 9.57449 20.2956L5.30882 23.1082C5.09265 23.2507 4.81591 23.2628 4.58847 23.1402C4.36071 23.0175 4.21864 22.7797 4.21864 22.5211V18.7368L1.7949 17.5249C1.55666 17.4057 1.40622 17.1623 1.40622 16.896V13.2595C0.587776 12.9693 1.90735e-06 12.1877 1.90735e-06 11.271C1.90735e-06 10.1754 0.839863 9.27238 1.90942 9.17138L2.83336 5.47544C2.88378 5.27361 3.02086 5.10609 3.20369 5.01573L7.0942 3.091C7.08389 3.00644 7.07794 2.92058 7.07794 2.83344C7.07794 1.67029 8.02427 0.724121 9.18741 0.724121C10.1041 0.724121 10.8857 1.31206 11.1759 2.13033H14.2303C14.5205 1.31189 15.3021 0.724121 16.2188 0.724121C17.3819 0.724121 18.3281 1.67046 18.3281 2.83344C18.3281 3.15737 18.2545 3.46422 18.1235 3.7387L20.978 6.55692C21.2543 6.42387 21.5639 6.34913 21.8905 6.34913C23.0537 6.34913 23.9998 7.29547 23.9998 8.45845C23.9998 9.37515 23.4119 10.1567 22.5936 10.447V13.5013C23.4122 13.7917 24 14.5733 24 15.4898ZM21.8907 16.1929C22.2784 16.1929 22.5938 15.8775 22.5938 15.4898C22.5938 15.1021 22.2784 14.7867 21.8907 14.7867C21.503 14.7867 21.1876 15.1021 21.1876 15.4898C21.1876 15.8775 21.503 16.1929 21.8907 16.1929ZM7.72273 4.34935L4.71089 5.83932L7.9687 9.0612L9.89165 8.42027C9.90164 7.86778 10.1249 7.36666 10.4825 6.9957L9.44771 4.92633C9.36234 4.93696 9.27568 4.94292 9.18741 4.94292C8.61881 4.94292 8.10239 4.71644 7.72273 4.34935ZM3.27359 9.51319C3.84268 9.8914 4.2188 10.538 4.2188 11.271C4.2188 11.5963 4.1447 11.9046 4.01262 12.1798L4.81736 12.9846L6.8716 9.9539L3.89857 7.01358L3.27359 9.51319ZM8.83498 14.327C8.90617 14.2197 8.98703 14.1194 9.07611 14.0269L7.68939 11.2535L6.06975 13.6431L8.83498 14.327ZM15.7576 16.056L16.7977 12.9358L15.2802 11.7978L12.4969 14.581C12.6016 14.7993 12.6696 15.0383 12.6933 15.2901L15.7576 16.056ZM19.8448 14.976L18.0031 13.7668L17.2896 15.907L19.7912 15.2885C19.8013 15.1819 19.8194 15.0775 19.8448 14.976ZM19.9022 9.16172H17.9162L16.2847 10.7933L17.5625 11.7517L19.9854 9.36339C19.9544 9.29799 19.9267 9.23066 19.9022 9.16172ZM15.588 4.84659L13.7553 7.29031C13.9788 7.62503 14.1095 8.02676 14.1095 8.45861C14.1095 8.67832 14.0757 8.89014 14.013 9.08939L15.1483 9.94085L16.8464 8.24277L16.0189 4.93309C15.8702 4.91924 15.7261 4.88992 15.588 4.84659ZM12 7.7555C11.6123 7.7555 11.2969 8.07089 11.2969 8.45861C11.2969 8.84632 11.6123 9.16172 12 9.16172C12.3877 9.16172 12.7031 8.84632 12.7031 8.45861C12.7031 8.07089 12.3877 7.7555 12 7.7555ZM11.5026 13.5865L14.1438 10.9453L13.1683 10.2137C12.8336 10.4373 12.4318 10.5679 12 10.5679C11.3251 10.5679 10.7235 10.2488 10.3372 9.754L8.7728 10.2756L10.3336 13.3971C10.419 13.3866 10.5057 13.3805 10.5939 13.3805C10.919 13.3805 11.2271 13.4546 11.5026 13.5865ZM10.7049 4.29651L11.7397 6.36588C11.8251 6.35525 11.9117 6.34929 12 6.34929C12.2197 6.34929 12.4315 6.38312 12.6308 6.44578L14.4635 4.00206C14.3675 3.85838 14.2889 3.7023 14.2303 3.53687H11.1759C11.0743 3.82343 10.9121 4.08179 10.7049 4.29651ZM18.174 7.7555H19.9022C19.9267 7.6864 19.9544 7.61891 19.9858 7.55335L17.5132 5.11221L18.174 7.7555ZM20.9777 10.36L18.7384 12.5672L20.6233 13.8048C20.7933 13.6766 20.9832 13.5738 21.1876 13.5013V10.447C21.1157 10.4217 21.0457 10.3928 20.9777 10.36ZM11.2969 15.4898C11.2969 15.1021 10.9815 14.7867 10.5938 14.7867C10.2061 14.7867 9.89068 15.1021 9.89068 15.4898C9.89068 15.8775 10.2061 16.1929 10.5938 16.1929C10.9815 16.1929 11.2969 15.8775 11.2969 15.4898ZM8.60882 19.2479L9.37056 17.2069C9.35204 17.1937 9.33351 17.1802 9.31531 17.1663L5.62485 18.7642V21.2154L8.60882 19.2479ZM4.94316 17.527L8.54004 15.9695C8.51878 15.8788 8.50332 15.7861 8.49413 15.6913L4.75293 14.7663C4.626 14.7349 4.49988 14.6596 4.41692 14.5733L3.01796 13.1743C2.95127 13.2062 2.88249 13.2346 2.81226 13.2595V16.4616L4.94316 17.527ZM1.40622 11.271C1.40622 11.6588 1.72161 11.9741 2.10932 11.9741C2.49703 11.9741 2.81242 11.6588 2.81242 11.271C2.81242 10.8833 2.49703 10.5679 2.10932 10.5679C1.72161 10.5679 1.40622 10.8835 1.40622 11.271ZM9.18741 2.13049C8.7997 2.13049 8.48431 2.44588 8.48431 2.8336C8.48431 3.22131 8.7997 3.53671 9.18741 3.53671C9.57513 3.53671 9.89052 3.22131 9.89052 2.8336C9.89052 2.44588 9.57513 2.13049 9.18741 2.13049ZM16.2188 2.13049C15.8311 2.13049 15.5157 2.44588 15.5157 2.8336C15.5157 3.22131 15.8311 3.53671 16.2188 3.53671C16.6065 3.53671 16.9219 3.22131 16.9219 2.8336C16.9219 2.44588 16.6065 2.13049 16.2188 2.13049ZM21.8907 7.7555C21.503 7.7555 21.1876 8.07089 21.1876 8.45861C21.1876 8.84632 21.503 9.16172 21.8907 9.16172C22.2784 9.16172 22.5938 8.84632 22.5938 8.45861C22.5938 8.07089 22.2784 7.7555 21.8907 7.7555Z" fill="url(#paint0_linear_5818_10655)"/>
<path d="M4.2195 20.3535H5.62378V27.8401H4.2195V20.3535Z" fill="url(#paint1_linear_5818_10655)"/>
<path d="M4.85293 31.2663C6.02542 31.2663 6.979 30.3126 6.979 29.1402C6.979 27.9679 6.02526 27.0142 4.85293 27.0142C3.68061 27.0142 2.72686 27.9679 2.72686 29.1402C2.72686 30.3126 3.68061 31.2663 4.85293 31.2663ZM4.85293 28.1601C5.39335 28.1601 5.83309 28.5998 5.83309 29.1402C5.83309 29.6806 5.39335 30.1204 4.85293 30.1204C4.31252 30.1204 3.87277 29.6806 3.87277 29.1402C3.87293 28.5997 4.31252 28.1601 4.85293 28.1601Z" fill="url(#paint2_linear_5818_10655)"/>
<defs>
<linearGradient id="paint0_linear_5818_10655" x1="12" y1="0.724121" x2="12" y2="23.2243" gradientUnits="userSpaceOnUse">
<stop stop-color="#8a162c"/>
<stop offset="1" stop-color="#8a162c"/>
</linearGradient>
<linearGradient id="paint1_linear_5818_10655" x1="4.78162" y1="12.523" x2="5.38509" y2="27.8218" gradientUnits="userSpaceOnUse">
<stop stop-color="#8a162c"/>
<stop offset="1" stop-color="#8a162c"/>
</linearGradient>
<linearGradient id="paint2_linear_5818_10655" x1="4.42897" y1="22.5667" x2="4.49335" y2="31.269" gradientUnits="userSpaceOnUse">
<stop stop-color="#8a162c"/>
<stop offset="1" stop-color="#8a162c"/>
</linearGradient>
</defs>
</svg>
