<?xml version="1.0" encoding="UTF-8"?>
<svg xmlns="http://www.w3.org/2000/svg" xmlns:xlink="http://www.w3.org/1999/xlink" style="max-height: 500px; background: transparent;" viewBox="405.48787401574805 318.3208421052631 98.27635545556805 95.29263157894736" overflow="hidden" width="98.27635545556805" height="95.29263157894736"><g><text font-family="Raleway,Raleway_MSFontService,sans-serif" font-weight="400" font-size="45.3333" transform="translate(519.307 369)">InsightSphere</text><text font-family="Raleway,Raleway_MSFontService,sans-serif" font-weight="400" font-size="45.3333" transform="translate(808.473 369)"/><text font-family="Raleway,Raleway_MSFontService,sans-serif" font-style="italic" font-weight="400" font-size="18.6667" transform="translate(519.307 402)">AI Disease Area Expert</text><text font-family="Raleway,Raleway_MSFontService,sans-serif" font-style="italic" font-weight="400" font-size="18.6667" transform="translate(707.473 402)"/><path d="M437.488 406.991C437.488 406.991 437.212 406.847 436.133 405.992 426.055 397.945 452.418 385.263 476.365 380.582 478.96 380.078 480.86 377.837 480.994 375.181 480.994 375.136 480.994 375.1 480.994 375.055 481.172 371.185 477.604 368.232 473.885 369.178 469.123 370.375 463.852 371.995 458.305 374.119 429.578 385.1 420.623 399.232 437.48 407" fill="#8a162c" fill-rule="evenodd"/><path d="M457.747 408.729C457.988 408.684 458.385 408.594 458.7 408.522 455.925 408.828 454.677 408.126 454.353 407.901 451.598 405.956 458.265 402.183 467.124 399.644 468.65 399.212 469.778 397.933 469.963 396.394 469.963 396.367 469.963 396.34 469.972 396.313 470.314 393.458 467.438 391.261 464.664 392.234 457.867 394.611 451.625 397.753 448.5 401.391 443.867 406.784 450.821 409.963 457.747 408.738" fill="#8a162c" fill-rule="evenodd"/><path d="M463.101 331.848C463.101 331.848 463.037 331.802 463.01 331.784 461.984 331.079 460.714 330.831 459.507 331.115 445.676 334.411 427.063 341.654 417.271 351.743 406.78 362.556 410.728 370 410.728 370 410.174 357.53 438.271 345.389 461.621 339.786 465.315 338.898 466.232 334.018 463.11 331.848" fill="#8a162c" fill-rule="evenodd"/><path d="M441.016 327.181C441.016 327.181 440.988 327.163 440.97 327.163 440.569 326.983 440.123 326.947 439.704 327.082 431.17 329.775 423.255 334.919 418 342 418 342 426.37 335.145 440.815 330.361 442.3 329.874 442.418 327.839 441.007 327.19" fill="#8a162c" fill-rule="evenodd"/><path d="M416.392 388.672C417.65 391.377 419.222 393 419.222 393 412.052 382.135 435.521 369.872 459.789 362.703 463.114 361.72 464.857 358.086 463.581 354.858 463.563 354.804 463.536 354.759 463.527 354.714 462.377 351.82 459.178 350.323 456.231 351.297 433.347 358.88 408.872 372.477 416.383 388.672" fill="#8a162c" fill-rule="evenodd"/><path d="M453.87 323.331C453.389 322.11 451.709 321.646 450.131 322.291 448.544 322.935 447.649 324.448 448.13 325.669 448.611 326.89 450.291 327.354 451.869 326.71 453.456 326.056 454.351 324.552 453.87 323.331" fill="#8a162c" fill-rule="evenodd"/><path d="M496.965 347.153C496.656 345 494.409 343.622 491.949 344.092 489.481 344.561 487.727 346.684 488.035 348.847 488.344 351.01 490.583 352.377 493.051 351.908 495.519 351.438 497.273 349.316 496.965 347.153" fill="#8a162c" fill-rule="evenodd"/><path d="M479.9 331.128C479.352 328.755 476.486 327.457 473.505 328.217 470.516 328.977 468.543 331.508 469.091 333.872 469.64 336.245 472.506 337.543 475.495 336.783 478.476 336.023 480.457 333.492 479.909 331.128" fill="#8a162c" fill-rule="evenodd"/><path d="M497.901 371.47C497.254 368.842 493.865 367.397 490.329 368.241 486.793 369.084 484.461 371.901 485.108 374.53 485.755 377.158 489.145 378.603 492.671 377.759 496.207 376.916 498.539 374.099 497.892 371.47" fill="#8a162c" fill-rule="evenodd"/><path d="M483.909 392.78C483.361 390.677 480.498 389.517 477.506 390.192 474.513 390.867 472.543 393.117 473.092 395.22 473.64 397.323 476.502 398.483 479.495 397.808 482.478 397.133 484.457 394.874 483.909 392.78" fill="#8a162c" fill-rule="evenodd"/><path d="M484.859 349.517C484.011 346.094 479.585 344.221 474.969 345.31 470.354 346.398 467.293 350.07 468.141 353.484 468.989 356.898 473.415 358.78 478.031 357.691 482.646 356.603 485.707 352.931 484.859 349.517" fill="#8a162c" fill-rule="evenodd"/></g></svg>