<svg width="18" height="18" viewBox="0 0 18 18" fill="none" xmlns="http://www.w3.org/2000/svg">
<path d="M4.52887 14.125L3.02738 15.6263C2.814 15.8398 2.56856 15.8882 2.29106 15.7714C2.01369 15.6546 1.875 15.4442 1.875 15.1403V4.23081C1.875 3.85194 2.00625 3.53125 2.26875 3.26875C2.53125 3.00625 2.85194 2.875 3.23081 2.875H14.7692C15.1481 2.875 15.4687 3.00625 15.7312 3.26875C15.9937 3.53125 16.125 3.85194 16.125 4.23081V12.7692C16.125 13.1481 15.9937 13.4688 15.7312 13.7313C15.4687 13.9938 15.1481 14.125 14.7692 14.125H4.52887ZM4.05 13H14.7692C14.8269 13 14.8798 12.9759 14.9278 12.9278C14.9759 12.8798 15 12.8269 15 12.7692V4.23081C15 4.17306 14.9759 4.12019 14.9278 4.07219C14.8798 4.02406 14.8269 4 14.7692 4H3.23081C3.17306 4 3.12019 4.02406 3.07219 4.07219C3.02406 4.12019 3 4.17306 3 4.23081V14.0386L4.05 13ZM5.25 11.3125H9.75C9.90962 11.3125 10.0433 11.2586 10.1509 11.1509C10.2586 11.0433 10.3125 10.9096 10.3125 10.75C10.3125 10.5904 10.2586 10.4568 10.1509 10.3491C10.0433 10.2414 9.90962 10.1875 9.75 10.1875H5.25C5.09037 10.1875 4.95675 10.2414 4.84912 10.3491C4.74137 10.4568 4.6875 10.5904 4.6875 10.75C4.6875 10.9096 4.74137 11.0433 4.84912 11.1509C4.95675 11.2586 5.09037 11.3125 5.25 11.3125ZM5.25 9.0625H12.75C12.9096 9.0625 13.0432 9.00863 13.1509 8.90088C13.2586 8.79325 13.3125 8.65963 13.3125 8.5C13.3125 8.34038 13.2586 8.20675 13.1509 8.09912C13.0432 7.99137 12.9096 7.9375 12.75 7.9375H5.25C5.09037 7.9375 4.95675 7.99137 4.84912 8.09912C4.74137 8.20675 4.6875 8.34038 4.6875 8.5C4.6875 8.65963 4.74137 8.79325 4.84912 8.90088C4.95675 9.00863 5.09037 9.0625 5.25 9.0625ZM5.25 6.8125H12.75C12.9096 6.8125 13.0432 6.75863 13.1509 6.65088C13.2586 6.54325 13.3125 6.40963 13.3125 6.25C13.3125 6.09038 13.2586 5.95675 13.1509 5.84912C13.0432 5.74137 12.9096 5.6875 12.75 5.6875H5.25C5.09037 5.6875 4.95675 5.74137 4.84912 5.84912C4.74137 5.95675 4.6875 6.09038 4.6875 6.25C4.6875 6.40963 4.74137 6.54325 4.84912 6.65088C4.95675 6.75863 5.09037 6.8125 5.25 6.8125Z" fill="#891515"/>
</svg>
