<svg width="14" height="14" viewBox="0 0 14 14" fill="none" xmlns="http://www.w3.org/2000/svg">
<path d="M1.47907 13.9091C1.06575 13.9091 0.715909 13.7659 0.429545 13.4795C0.143182 13.1932 0 12.8433 0 12.43V1.47907C0 1.06575 0.143182 0.715909 0.429545 0.429545C0.715909 0.143182 1.06575 0 1.47907 0H6.34889C6.52289 0 6.66866 0.0587726 6.7862 0.176318C6.90361 0.293727 6.96232 0.4395 6.96232 0.613636C6.96232 0.787773 6.90361 0.933546 6.7862 1.05095C6.66866 1.1685 6.52289 1.22727 6.34889 1.22727H1.47907C1.41607 1.22727 1.35839 1.25352 1.30602 1.30602C1.25352 1.35839 1.22727 1.41607 1.22727 1.47907V12.43C1.22727 12.493 1.25352 12.5507 1.30602 12.6031C1.35839 12.6556 1.41607 12.6818 1.47907 12.6818H6.34889C6.52289 12.6818 6.66866 12.7406 6.7862 12.8581C6.90361 12.9755 6.96232 13.1213 6.96232 13.2955C6.96232 13.4696 6.90361 13.6154 6.7862 13.7328C6.66866 13.8503 6.52289 13.9091 6.34889 13.9091H1.47907ZM11.5505 7.56818H5.19239C5.01825 7.56818 4.87241 7.50941 4.75486 7.39186C4.63745 7.27446 4.57875 7.12868 4.57875 6.95455C4.57875 6.78041 4.63745 6.63464 4.75486 6.51723C4.87241 6.39968 5.01825 6.34091 5.19239 6.34091H11.5505L9.97711 4.76755C9.8638 4.65423 9.80584 4.51602 9.80325 4.35293C9.80066 4.18984 9.85861 4.04482 9.97711 3.91786C10.0956 3.79091 10.2393 3.72532 10.4083 3.72109C10.5771 3.717 10.725 3.77836 10.852 3.90518L13.3836 6.43684C13.5314 6.5848 13.6053 6.75736 13.6053 6.95455C13.6053 7.15173 13.5314 7.3243 13.3836 7.47225L10.852 10.0039C10.7303 10.1255 10.5858 10.1855 10.4185 10.1839C10.2512 10.1824 10.1041 10.1182 9.97711 9.99123C9.85861 9.86427 9.80148 9.7185 9.80571 9.55391C9.8098 9.38918 9.87116 9.24757 9.9898 9.12907L11.5505 7.56818Z" fill="#891515"/>
</svg>
