<svg width="70" height="40" viewBox="0 0 70 40" fill="#c5203f" xmlns="http://www.w3.org/2000/svg">
<path fill-rule="evenodd" clip-rule="evenodd" d="M35.7456 4.568C35.2737 4.82148 35.0965 5.40712 35.3509 5.87563C35.3789 5.92633 35.4123 5.97353 35.4491 6.01898C34.9421 6.49973 34.4772 7.03293 34.0632 7.6343C34.0632 7.6343 37.2509 -7.87901 62.6053 5.32321C62.6053 5.32321 53.6614 2.05237 45.4246 2.45271C45.5684 2.06636 45.5561 1.62407 45.3439 1.23248C44.9509 0.508736 44.0421 0.236021 43.3123 0.625864C42.5842 1.01571 42.3105 1.92126 42.7035 2.64501C42.7123 2.66249 42.7246 2.67647 42.7351 2.69221C42.7421 2.7027 42.7509 2.71319 42.7579 2.72542C40.6439 3.06806 38.6561 3.72538 36.9702 4.82148C36.6842 4.45786 36.1702 4.33899 35.7474 4.56625L35.7456 4.568ZM48.8193 12.704C49.0579 13.1445 49.6088 13.3089 50.0509 13.0711C50.493 12.8351 50.6579 12.2862 50.4211 11.8457C50.2561 11.5415 49.9403 11.3719 49.614 11.3736L44.9702 2.7971C45.3281 2.40725 45.4211 1.82336 45.1561 1.33213C44.8193 0.709776 44.0386 0.477269 43.414 0.812918C42.7877 1.14857 42.5544 1.92301 42.8912 2.54536C43.1579 3.0366 43.6982 3.27959 44.2228 3.19743L48.8684 11.774C48.6877 12.0432 48.6544 12.3981 48.8211 12.7023L48.8193 12.704ZM41.3175 14.8543C40.7965 15.1322 40.1474 14.9399 39.8667 14.4207C39.6456 14.0116 39.7246 13.5257 40.0228 13.2005L36.2175 6.17457C35.9421 6.17807 35.6737 6.03647 35.5333 5.77774C35.3333 5.40712 35.4719 4.94735 35.8439 4.74806C36.2158 4.54877 36.6789 4.68688 36.8807 5.05749C37.0211 5.31622 36.993 5.6169 36.8368 5.84417L40.6421 12.8701C41.0789 12.8019 41.5316 13.0029 41.7526 13.412C42.0333 13.9295 41.8386 14.5763 41.3175 14.8543ZM27.4667 20.9379C27.6982 21.3662 28.2351 21.5253 28.6649 21.2963C29.0947 21.0655 29.2561 20.5323 29.0246 20.104C28.8561 19.7929 28.5263 19.6268 28.193 19.6443L25.2193 14.1532C25.4895 13.8386 25.5561 13.3806 25.3474 12.996C25.0754 12.4942 24.4474 12.3072 23.9421 12.5764C23.4368 12.8456 23.2491 13.4715 23.5211 13.9732C23.7298 14.3595 24.1509 14.5571 24.5632 14.5046L27.5368 19.9956C27.3368 20.2614 27.2965 20.6267 27.4649 20.9379H27.4667ZM35.0684 29.4498H39.8421C43.2807 29.4498 45.6368 31.5091 45.6368 34.6733C45.6368 37.8375 43.2807 39.8969 39.8421 39.8969H35.0684V29.4498ZM37.5 37.9109H39.7211C41.807 37.9109 43.1737 36.6732 43.1737 34.6716C43.1737 32.6699 41.807 31.4322 39.7211 31.4322H37.5V37.9109ZM0 29.448H4.32281C7.08421 29.448 8.79649 30.8676 8.79649 33.1647C8.79649 35.4618 7.08596 36.8795 4.32281 36.8795H1.94912V39.8951H0V29.448ZM1.95088 35.2397H4.23333C5.94386 35.2397 6.82982 34.481 6.82982 33.1664C6.82982 31.8518 5.94386 31.0913 4.23333 31.0913H1.95088V35.2415V35.2397ZM12.2789 31.9269V33.0895C12.8193 32.2556 13.7947 31.836 15.1298 31.836V33.6122C14.9632 33.5825 14.8298 33.5667 14.6947 33.5667C13.2684 33.5667 12.3684 34.4041 12.3684 36.0299V39.8951H10.4912V31.9252H12.2772L12.2789 31.9269ZM20.2509 38.4039C19.0965 38.4039 18.1825 37.6959 17.9439 36.5386H16.0316C16.3193 38.591 18.014 40.0018 20.2526 40.0018C22.4912 40.0018 24.2053 38.591 24.4895 36.5386H22.5754C22.3368 37.6942 21.4211 38.4039 20.2526 38.4039H20.2509ZM17.9509 35.2397H16.0351C16.3404 33.2136 17.9965 31.8378 20.2491 31.8378C22.5018 31.8378 24.1772 33.2136 24.4789 35.2397H22.5632C22.307 34.1087 21.386 33.4199 20.2491 33.4199C19.1123 33.4199 18.2053 34.1104 17.9509 35.2397ZM29.993 33.4199C30.7877 33.4199 31.5105 33.7625 31.9912 34.5247L33.4316 33.6891C32.8175 32.4794 31.5719 31.8395 30.0088 31.8395C27.4719 31.8395 25.6702 33.5248 25.6702 35.9128C25.6702 38.3008 27.4719 40.0018 30.0088 40.0018C31.5702 40.0018 32.8158 39.3287 33.4316 38.1365L31.9912 37.3008C31.5105 38.0613 30.7895 38.4057 29.993 38.4057C28.6123 38.4057 27.5614 37.4652 27.5614 35.9145C27.5614 34.3639 28.6123 33.4234 29.993 33.4234V33.4199ZM54.7035 35.7922L49.4789 29.448H47.4667V39.8951H49.8702V33.5527L55.1088 39.8951H57.1053V29.448H54.7035V35.7922ZM62.9 29.448H65.3018L70 39.8951H67.4474L66.5175 37.6575L65.7509 35.8219L65.6737 35.6348L64.0842 31.8221L62.4175 35.8219L61.6404 37.6575L61.6035 37.7431L60.707 39.8951H58.2158L62.8982 29.448H62.9ZM32.3246 20.5516C32.5018 20.8785 32.914 21.0026 33.2439 20.826C33.5737 20.6495 33.6965 20.2404 33.5193 19.9135C33.4193 19.7282 33.2439 19.6128 33.0526 19.5743L29.7316 13.4417C30.1246 13.0606 30.2404 12.4558 29.9649 11.9505C29.6333 11.3387 28.8667 11.1114 28.2526 11.4401C27.6386 11.7687 27.4088 12.5309 27.7386 13.1428C28.0123 13.648 28.5842 13.8858 29.1211 13.7686L32.393 19.8103C32.2263 20.0149 32.1912 20.3068 32.3246 20.5533V20.5516ZM25.7877 24.9063C25.4193 25.1038 24.9597 24.9657 24.7614 24.6003C24.6316 24.3608 24.6491 24.0811 24.7789 23.8626L20.2246 15.4556C19.6526 15.571 19.0491 15.3158 18.7579 14.7773C18.4018 14.12 18.6491 13.3001 19.3105 12.947C19.9719 12.5939 20.7965 12.8386 21.1509 13.4959C21.4421 14.0326 21.3246 14.676 20.9123 15.0868L25.4667 23.4937C25.7228 23.506 25.9667 23.6458 26.0965 23.8853C26.2947 24.2507 26.1561 24.7087 25.7895 24.9063H25.7877ZM46.3825 15.4591C45.7579 15.7948 44.9772 15.5605 44.6404 14.9399C44.3614 14.4242 44.479 13.8071 44.8807 13.419L41.2211 6.66406C40.9526 6.66406 40.6912 6.5277 40.5544 6.27422C40.3579 5.9106 40.4947 5.45957 40.8596 5.26377C41.2246 5.06798 41.6789 5.20434 41.8754 5.56621C42.0123 5.81794 41.9842 6.11164 41.8351 6.33366L45.4947 13.0886C46.0421 12.968 46.6246 13.2092 46.9035 13.7249C47.2404 14.3473 47.007 15.1217 46.3807 15.4574L46.3825 15.4591ZM17.0491 16.106C16.8509 15.7406 16.3912 15.6025 16.0228 15.8C15.6544 15.9976 15.5175 16.4538 15.714 16.8192C15.8456 17.0622 16.0912 17.2003 16.3491 17.2108L20.1386 24.207C19.8561 24.5339 19.786 25.0112 20.0053 25.4132C20.2877 25.9342 20.9421 26.13 21.4667 25.8485C21.9912 25.5688 22.186 24.9185 21.9053 24.3958C21.6877 23.9937 21.2491 23.7892 20.8193 23.8434L17.0298 16.8472C17.1632 16.6269 17.1825 16.3455 17.0509 16.1042L17.0491 16.106ZM35.5737 17.1811C35.5737 17.1811 34.907 18.3087 33.4614 19.6617C33.5228 19.7177 33.5772 19.7824 33.6193 19.861C33.8263 20.2439 33.6825 20.7194 33.2982 20.9257C32.9368 21.1197 32.4965 21.0026 32.2719 20.6722C30.8018 21.8033 28.8088 22.9361 26.2404 23.6074C26.2772 23.6546 26.3123 23.7035 26.3421 23.7577C26.6123 24.2577 26.4246 24.8818 25.9211 25.151C25.4175 25.4202 24.7895 25.2332 24.5193 24.7332C24.3895 24.4937 24.3667 24.2262 24.4333 23.9815C23.6807 24.0986 22.8842 24.1738 22.0456 24.2018C22.0526 24.214 22.0614 24.2245 22.0702 24.235C22.0825 24.2525 22.0965 24.2717 22.107 24.2909C22.4491 24.922 22.2123 25.7087 21.5754 26.0496C20.9386 26.3905 20.1491 26.1527 19.807 25.5216C19.5649 25.0758 19.6175 24.5549 19.8912 24.165C16.3965 23.9413 12.2544 22.8924 7.39649 20.5079C7.39649 20.5079 27.0632 36.2886 35.5754 17.1793L35.5737 17.1811ZM15.5719 16.8961C15.6614 17.0605 15.793 17.1846 15.9474 17.2667C14.8526 18.2964 14.3386 19.1251 14.3386 19.1251C14.9105 15.634 17.3263 13.3753 20.1211 11.9156C24.6667 9.53981 30.093 9.47338 34.793 11.5292C36.5439 12.2949 38.1912 12.8211 39.7351 13.1585C39.4544 13.5536 39.3982 14.0851 39.6439 14.5396C39.9895 15.1794 40.7912 15.4172 41.4351 15.0745C41.9982 14.7738 42.2526 14.1253 42.0737 13.5396C42.8842 13.6253 43.6649 13.6603 44.4088 13.648C44.1912 14.0763 44.1789 14.6008 44.4246 15.0553C44.8263 15.7948 45.7544 16.0727 46.4982 15.6742C47.2421 15.2756 47.5211 14.3525 47.1211 13.6131C47.0842 13.5449 47.0386 13.4854 46.993 13.426L46.9877 13.419C47.6158 13.3176 48.214 13.1883 48.7789 13.0327C49.1211 13.4085 49.686 13.5204 50.1561 13.2704C50.5105 13.0816 50.7211 12.7302 50.7474 12.3579C54.4368 10.83 56.3421 8.49265 56.3421 8.49265C56.2211 8.68845 56.0982 8.88075 55.9754 9.06955C51.6193 15.7109 43.0579 18.2737 35.6561 15.3263C33.5474 14.4871 31.6175 13.954 29.8526 13.655C30.3561 13.2057 30.5088 12.4593 30.1737 11.8422C29.7807 11.1184 28.8719 10.8457 28.1421 11.2355C27.4123 11.6254 27.1404 12.5292 27.5333 13.2547C27.5526 13.2896 27.5754 13.3229 27.6 13.3543C27.6088 13.3666 27.6193 13.3788 27.6281 13.3928C26.9544 13.3491 26.3123 13.3456 25.6947 13.3683C25.6789 13.2057 25.6316 13.0432 25.5491 12.8893C25.2175 12.2775 24.4509 12.0502 23.8368 12.3788C23.3614 12.6323 23.1211 13.1445 23.186 13.648C22.6386 13.7512 22.1193 13.8805 21.6246 14.0291C21.6088 13.7984 21.5491 13.5676 21.4316 13.3491C20.993 12.5397 19.9772 12.2355 19.1632 12.6725C18.3491 13.1078 18.0439 14.1183 18.4825 14.9277C18.5474 15.0483 18.6298 15.1532 18.7175 15.2511C18.1772 15.5518 17.693 15.8682 17.2579 16.1864C17.2404 16.1339 17.2211 16.0832 17.193 16.0325C16.9526 15.5885 16.3947 15.4224 15.9474 15.6619C15.5 15.9014 15.3333 16.4556 15.5737 16.8996L15.5719 16.8961Z" fill="url(#paint0_linear_6113_3917)"/>
<defs>
  <linearGradient id="paint0_linear_6113_3917" x1="0%" y1="0%" x2="100%" y2="0%">
  <stop offset="0%" stop-color="#8a162c" />
  <stop offset="50%" stop-color="#c5203f" />
  <stop offset="100%" stop-color="#e63946" />
</linearGradient>

</defs>
</svg>
