<svg width="18" height="18" viewBox="0 0 18 18" fill="none" xmlns="http://www.w3.org/2000/svg">
<path d="M18 8.99996C18 9.13676 17.9226 9.26096 17.8002 9.32215L0.520019 17.9622C0.469619 17.9874 0.413818 18 0.359818 18C0.282417 18 0.205015 17.9748 0.142016 17.9262C0.0322158 17.8434 -0.0199864 17.7048 0.0070145 17.5698L1.44703 10.3698C1.47583 10.2276 1.58743 10.1159 1.72964 10.0871L7.16391 8.99992L1.72964 7.91271C1.58744 7.88391 1.47583 7.7723 1.44703 7.6301L0.0070145 0.430056C-0.0199864 0.295055 0.0322158 0.156455 0.142016 0.0736485C0.251817 -0.00915078 0.397625 -0.0235509 0.521812 0.0376483L17.802 8.6777C17.9226 8.7389 18 8.86317 18 8.99996Z" fill="url(#paint0_linear_6867_2809)"/>
<defs>
<linearGradient id="paint0_linear_6867_2809" x1="9" y1="0" x2="9" y2="18" gradientUnits="userSpaceOnUse">
<stop stop-color="#8a162c"/>
<stop offset="1" stop-color="#c5203f"/>
</linearGradient>
</defs>
</svg>
