<svg width="13" height="13" viewBox="0 0 13 13" fill="none" xmlns="http://www.w3.org/2000/svg">
<path d="M1.35581 12.75C0.981812 12.75 0.662313 12.6176 0.397313 12.3527C0.132438 12.0877 0 11.7682 0 11.3942V1.35581C0 0.981812 0.132438 0.662313 0.397313 0.397313C0.662313 0.132438 0.981812 0 1.35581 0H11.3942C11.7682 0 12.0877 0.132438 12.3527 0.397313C12.6176 0.662313 12.75 0.981812 12.75 1.35581V11.3942C12.75 11.7682 12.6176 12.0877 12.3527 12.3527C12.0877 12.6176 11.7682 12.75 11.3942 12.75H1.35581ZM3.375 11.625V1.125H1.35581C1.29806 1.125 1.24519 1.14906 1.19719 1.19719C1.14906 1.24519 1.125 1.29806 1.125 1.35581V11.3942C1.125 11.4519 1.14906 11.5048 1.19719 11.5528C1.24519 11.6009 1.29806 11.625 1.35581 11.625H3.375ZM4.5 11.625H11.3942C11.4519 11.625 11.5048 11.6009 11.5528 11.5528C11.6009 11.5048 11.625 11.4519 11.625 11.3942V1.35581C11.625 1.29806 11.6009 1.24519 11.5528 1.19719C11.5048 1.14906 11.4519 1.125 11.3942 1.125H4.5V11.625Z" fill="#767676"/>
</svg>
