<svg width="11" height="11" viewBox="0 0 11 11" fill="none" xmlns="http://www.w3.org/2000/svg">
<path d="M8.93448 2.41568L1.19008 10.1601C1.05982 10.2903 0.89404 10.3555 0.692733 10.3555C0.491426 10.3555 0.325644 10.2903 0.195386 10.1601C0.0651287 10.0298 0 9.86404 0 9.66274C0 9.46143 0.0651287 9.29565 0.195386 9.16539L7.93978 1.42099H3.96101C3.7597 1.42099 3.59096 1.3529 3.45478 1.21672C3.3186 1.08054 3.25052 0.911802 3.25052 0.710495C3.25052 0.509188 3.3186 0.340446 3.45478 0.204267C3.59096 0.0680891 3.7597 0 3.96101 0H9.64497C9.84628 0 10.015 0.0680891 10.1512 0.204267C10.2874 0.340446 10.3555 0.509188 10.3555 0.710495V6.39446C10.3555 6.59576 10.2874 6.76451 10.1512 6.90069C10.015 7.03686 9.84628 7.10495 9.64497 7.10495C9.44367 7.10495 9.27492 7.03686 9.13875 6.90069C9.00257 6.76451 8.93448 6.59576 8.93448 6.39446V2.41568Z" fill="#c5203f"/>
</svg>
