<svg width="20" height="20" viewBox="0 0 20 20" fill="none" xmlns="http://www.w3.org/2000/svg">
<path d="M16.3333 -0.00244141C16.3333 -0.00244141 16.5364 1.88429 17.3229 2.67462C18.1093 3.46108 19.9999 3.66421 19.9999 3.66421C19.9999 3.66421 18.1132 3.86734 17.3229 4.65381C16.5364 5.44027 16.3333 7.33087 16.3333 7.33087C16.3333 7.33087 16.1302 5.44414 15.3437 4.65381C14.5572 3.86735 12.6666 3.66421 12.6666 3.66421C12.6666 3.66421 14.5534 3.46109 15.3437 2.67462C16.1301 1.88815 16.3333 -0.00244141 16.3333 -0.00244141Z" fill="#c5203f"/>
<path d="M7.50001 4.99756C7.50001 4.99756 7.91277 8.86088 9.52603 10.4715C11.1393 12.0848 15 12.4976 15 12.4976C15 12.4976 11.1367 12.9103 9.52603 14.5236C7.91277 16.1369 7.50001 19.9976 7.50001 19.9976C7.50001 19.9976 7.08724 16.1343 5.47398 14.5236C3.86072 12.9103 0 12.4976 0 12.4976C0 12.4976 3.86332 12.0848 5.47398 10.4715C7.08724 8.85828 7.50001 4.99756 7.50001 4.99756Z" fill="#c5203f"/>
<path d="M17.9999 17.4975C17.9999 18.6082 16.3333 18.6082 16.3333 17.4975C16.3333 16.3869 17.9999 16.3869 17.9999 17.4975Z" fill="#c5203f"/>
<path d="M3.33341 3.16405C3.33341 4.27472 1.66675 4.27472 1.66675 3.16405C1.66675 2.05339 3.33341 2.05339 3.33341 3.16405Z" fill="#c5203f"/>
</svg>
